<svg xmlns="http://www.w3.org/2000/svg" viewBox="0 0 512 512">
  <defs>
    <linearGradient id="cityGradient" x1="0%" y1="0%" x2="100%" y2="100%">
      <stop offset="0%" style="stop-color:#4CAF50;stop-opacity:1" />
      <stop offset="100%" style="stop-color:#2196F3;stop-opacity:1" />
    </linearGradient>
  </defs>
  
  <!-- Background circle -->
  <circle cx="256" cy="256" r="240" fill="url(#cityGradient)"/>
  
  <!-- City buildings -->
  <rect x="100" y="280" width="60" height="140" fill="#fff" opacity="0.9" rx="6"/>
  <rect x="170" y="250" width="60" height="170" fill="#fff" opacity="0.9" rx="6"/>
  <rect x="240" y="260" width="60" height="160" fill="#fff" opacity="0.9" rx="6"/>
  <rect x="310" y="230" width="60" height="190" fill="#fff" opacity="0.9" rx="6"/>
  <rect x="380" y="270" width="60" height="150" fill="#fff" opacity="0.9" rx="6"/>
  
  <!-- Heart/Care symbol in center -->
  <circle cx="256" cy="160" r="80" fill="#fff"/>
  <path d="M256 210 L220 174 Q210 164 210 148 Q210 126 230 126 Q245 126 256 140 Q267 126 282 126 Q302 126 302 148 Q302 164 292 174 Z" 
        fill="#e91e63"/>
  
  <!-- Small windows on buildings -->
  <rect x="115" y="300" width="15" height="15" fill="url(#cityGradient)" opacity="0.5" rx="2"/>
  <rect x="140" y="300" width="15" height="15" fill="url(#cityGradient)" opacity="0.5" rx="2"/>
  <rect x="115" y="330" width="15" height="15" fill="url(#cityGradient)" opacity="0.5" rx="2"/>
  <rect x="140" y="330" width="15" height="15" fill="url(#cityGradient)" opacity="0.5" rx="2"/>
  
  <rect x="185" y="275" width="15" height="15" fill="url(#cityGradient)" opacity="0.5" rx="2"/>
  <rect x="210" y="275" width="15" height="15" fill="url(#cityGradient)" opacity="0.5" rx="2"/>
  <rect x="185" y="305" width="15" height="15" fill="url(#cityGradient)" opacity="0.5" rx="2"/>
  <rect x="210" y="305" width="15" height="15" fill="url(#cityGradient)" opacity="0.5" rx="2"/>
  
  <rect x="395" y="290" width="15" height="15" fill="url(#cityGradient)" opacity="0.5" rx="2"/>
  <rect x="420" y="290" width="15" height="15" fill="url(#cityGradient)" opacity="0.5" rx="2"/>
  <rect x="395" y="320" width="15" height="15" fill="url(#cityGradient)" opacity="0.5" rx="2"/>
  <rect x="420" y="320" width="15" height="15" fill="url(#cityGradient)" opacity="0.5" rx="2"/>
</svg>
